# xmcd
#
# Track frame offsets: 
#        150
#        11968
#        25141
#        42653
#        63307
#        90302
#        104875
#        117792
#        140335
#        154773
#        177000
#        196487
#        220073
#        234194
#        253553
#        267060
#
# Disc length: 3818 seconds
#
# Revision: 7
# Processed by: cddbd v1.5.2PL0 Copyright (c) Steve Scherf et al.
# Submitted via: ExactAudioCopy v0.99pb5
#
DISCID=d70ee810
DTITLE=Ella Fitzgerald - We all love Ella (Tribute Album)
DYEAR=2007
DGENRE=Jazz
TTITLE0=Natalie Cole - A-Tisket, A-Tasket
TTITLE1=Chaka Khan - Lullaby Of Birdland
TTITLE2=Latifah Queen - The Lady Is A Tramp
TTITLE3=Diana Krall and Hank Jones - Dream A Little Dream Of Me
TTITLE4=Natalie Cole and Chaka Khan - (If You Can't Sing It) You'll Have
TTITLE4=To Swing It (a.k.a. Mr. Paganini)
TTITLE5=Dianne Reeves - Oh, Lady Be Good!
TTITLE6=Lizz Wright - Reaching For The Moon
TTITLE7=Ledisi - Blues In The Night
TTITLE8=Linda Ronstadt - Miss Otis Regrets
TTITLE9=Gladys Knight - Someone To Watch Over Me
TTITLE10=Etta James - Do Nothin' Till You Hear From Me
TTITLE11=K. D. Lang - Angel Eyes
TTITLE12=Michael Bublé - Too Close For Comfort
TTITLE13=Ella Fitzgerald and Stevie Wonder - You Are The Sunshine Of My 
TTITLE13=Life
TTITLE14=Dee Dee Bridgewater - Cotton Tail
TTITLE15=Nikki Yanofsky - Airmail Special
EXTD=
EXTT0=
EXTT1=
EXTT2=
EXTT3=
EXTT4=
EXTT5=
EXTT6=
EXTT7=
EXTT8=
EXTT9=
EXTT10=
EXTT11=
EXTT12=
EXTT13=
EXTT14=
EXTT15=
PLAYORDER=
